#!OML:ASF F:\VICON\USERDATA\INSTALL\rory3\rory3.ASF
:FULLY-SPECIFIED
:DEGREES
3198
root -1.25385 14.2301 2.92133 -368.918 -17.4653 365.807
lowerback 20.1105 0.764528 -5.34691
upperback 0.0929647 -0.306226 -0.445517
thorax -11.2065 0.133167 2.64973
lowerneck -13.8282 -6.22076 -4.1351
upperneck 19.7507 -8.75806 4.62602
head 8.84801 -3.97251 1.20107
rclavicle 2.10463e-014 0
rhumerus 65.6494 13.4497 -25.0142
rradius 50.146
rwrist 11.8097
rhand -0.542084 22.733
rfingers 7.12502
rthumb 25.0711 -5.64131
lclavicle 2.10463e-014 0
lhumerus 31.5091 8.50163 55.6336
lradius 54.2785
lwrist -12.3876
lhand -2.93243 11.5377
lfingers 7.12502
lthumb 22.7788 40.2129
rfemur -27.5438 2.58778 21.9923
rtibia 69.8257
rfoot -32.6461 -8.38198
rtoes 9.70253
lfemur -21.0483 -26.2497 5.27241
ltibia 19.0691
lfoot -0.364506 20.4404
ltoes -52.2069
3199
root -1.25636 14.2179 2.87984 -368.985 -18.1355 366.017
lowerback 20.1143 0.672282 -5.73403
upperback -0.0313252 -0.51204 -0.34426
thorax -11.3292 0.0681116 3.04365
lowerneck -13.9465 -6.34682 -4.52273
upperneck 19.6748 -8.83412 4.61467
head 8.86527 -4.03695 1.24655
rclavicle 8.31168e-015 6.36111e-015
rhumerus 65.8098 13.4096 -24.7853
rradius 50.002
rwrist 11.7616
rhand -1.06952 22.9408
rfingers 7.12502
rthumb 24.5656 -5.50313
lclavicle 8.31168e-015 6.36111e-015
lhumerus 31.1574 8.98333 55.3131
lradius 54.0935
lwrist -12.884
lhand -2.89859 11.3788
lfingers 7.12502
lthumb 22.8113 40.0499
rfemur -27.9927 3.08182 21.9855
rtibia 70.0853
rfoot -32.4505 -8.13942
rtoes 9.94218
lfemur -20.9695 -25.5788 5.13106
ltibia 19.3199
lfoot -1.20364 19.4349
ltoes -52.4498
3200
root -1.25593 14.2222 2.86754 -369.206 -18.9059 366.376
lowerback 19.8671 0.508727 -5.89604
upperback -0.13802 -0.760317 -0.408068
thorax -11.2862 -0.0403962 3.13489
lowerneck -13.8844 -6.25743 -4.69093
upperneck 19.9287 -8.66963 4.51192
head 8.93547 -3.9826 1.25947
rclavicle 2.50593e-014 -1.47101e-014
rhumerus 65.9486 13.4111 -25.5869
rradius 50.5595
rwrist 12.5016
rhand -0.394194 22.9102
rfingers 7.12502
rthumb 25.2128 -5.44421
lclavicle 2.50593e-014 -1.47101e-014
lhumerus 30.8457 9.39771 54.7903
lradius 53.8308
lwrist -12.5297
lhand -2.67568 11.3613
lfingers 7.12502
lthumb 23.0252 40.0059
rfemur -28.1349 3.44966 21.7498
rtibia 70.1644
rfoot -32.1066 -8.23628
rtoes 8.911
lfemur -20.5428 -25.5893 4.71364
ltibia 19.6117
lfoot -1.96808 19.0923
ltoes -52.9874
3201
root -1.25089 14.215 2.84875 -369.382 -19.7302 366.394
lowerback 20.1491 0.653406 -5.78311
upperback -0.101645 -0.57499 -0.51409
thorax -11.4247 0.0392135 2.90156
lowerneck -14.8723 -6.42701 -4.05737
upperneck 20.3934 -8.95924 4.12895
head 9.2413 -4.08456 0.955802
rclavicle 5.81445e-015 -1.03368e-014
rhumerus 65.4507 12.5869 -25.9745
rradius 50.7007
rwrist 13.1493
rhand -0.0903353 22.5007
rfingers 7.12502
rthumb 25.5038 -5.81246
lclavicle 5.81445e-015 -1.03368e-014
lhumerus 31.4064 9.166 54.6165
lradius 53.3862
lwrist -12.3587
lhand -3.38296 11.2159
lfingers 7.12502
lthumb 22.3464 39.9436
rfemur -28.1875 3.97296 21.898
rtibia 70.2109
rfoot -31.9311 -7.91176
rtoes 8.75905
lfemur -20.2014 -25.3102 4.67288
ltibia 19.7304
lfoot -1.93934 18.3645
ltoes -53.7912
3202
root -1.24548 14.2069 2.82218 -369.41 -20.3767 366.318
lowerback 20.0894 0.461631 -5.67101
upperback -0.183078 -0.793284 -0.448831
thorax -11.4629 -0.0640842 2.97404
lowerneck -13.9285 -6.27633 -4.30349
upperneck 19.9773 -8.73702 4.27553
head 8.93349 -4.01007 1.10736
rclavicle -1.67725e-014 -1.51076e-014
rhumerus 65.7088 12.5654 -24.939
rradius 50.4762
rwrist 12.4804
rhand -0.59876 22.4091
rfingers 7.12502
rthumb 25.0167 -5.9728
lclavicle -1.67725e-014 -1.51076e-014
lhumerus 31.1902 9.54666 54.1253
lradius 53.0845
lwrist -12.6021
lhand -3.29589 10.9264
lfingers 7.12502
lthumb 22.43 39.644
rfemur -28.4198 4.47288 22.169
rtibia 70.3159
rfoot -31.8023 -7.82322
rtoes 10.0031
lfemur -20.1347 -25.1407 4.86728
ltibia 20.0232
lfoot -4.42844 17.2631
ltoes -53.3
3203
root -1.23592 14.2101 2.80675 -369.526 -21.0935 366.46
lowerback 20.0108 0.368266 -5.60266
upperback -0.231606 -0.909483 -0.550081
thorax -11.4653 -0.125216 2.85553
lowerneck -14.2823 -6.19108 -3.94283
upperneck 20.094 -8.67128 4.15458
head 9.01231 -3.95722 1.0052
rclavicle -3.03892e-014 -1.74931e-014
rhumerus 65.5894 12.0108 -25.3399
rradius 50.4318
rwrist 12.7462
rhand -0.393385 22.6573
rfingers 7.12502
rthumb 25.2135 -5.69704
lclavicle -3.03892e-014 -1.74931e-014
lhumerus 31.3015 9.78561 53.8394
lradius 52.8475
lwrist -12.9656
lhand -3.24862 11.0386
lfingers 7.12502
lthumb 22.4753 39.7507
rfemur -28.5556 4.96862 22.1445
rtibia 70.3326
rfoot -31.5941 -7.6732
rtoes 9.33151
lfemur -20.1026 -25.489 4.73773
ltibia 20.5213
lfoot -5.04161 16.9816
ltoes -53.4857
3204
root -1.22452 14.2105 2.8078 -369.893 -22.0758 366.971
lowerback 19.8093 0.386778 -5.87128
upperback -0.239796 -0.949087 -0.671937
thorax -11.356 -0.136319 2.88175
lowerneck -13.9952 -6.14586 -4.08369
upperneck 20.0278 -8.5947 4.19958
head 8.94228 -3.93504 1.062
rclavicle -9.81499e-015 -6.36111e-015
rhumerus 65.4116 11.7704 -25.531
rradius 50.7817
rwrist 13.226
rhand -0.109146 22.5947
rfingers 7.12502
rthumb 25.4858 -5.72099
lclavicle -9.81499e-015 -6.36111e-015
lhumerus 31.2414 10.0162 53.4605
lradius 52.3681
lwrist -12.6492
lhand -3.53581 10.728
lfingers 7.12502
lthumb 22.1997 39.4732
rfemur -28.6183 5.59057 21.741
rtibia 70.4679
rfoot -31.3542 -7.40721
rtoes 9.20241
lfemur -19.3448 -25.7341 4.1376
ltibia 20.4287
lfoot -5.83307 16.6261
ltoes -54.0252
3205
root -1.21233 14.2014 2.79295 -370.213 -22.9491 367.147
lowerback 20.1377 0.400585 -6.15812
upperback -0.314656 -1.01865 -0.603278
thorax -11.6166 -0.13956 3.14709
lowerneck -14.0449 -6.0023 -3.96412
upperneck 20.1284 -8.38292 3.99858
head 8.96119 -3.84677 0.999625
rclavicle 1.77664e-015 9.14409e-015
rhumerus 65.4561 11.4607 -24.8246
rradius 50.6805
rwrist 12.7158
rhand 0.210199 22.6358
rfingers 7.12502
rthumb 25.7917 -5.63585
lclavicle 1.77664e-015 9.14409e-015
lhumerus 31.0818 10.2142 53.0771
lradius 52.2429
lwrist -12.5063
lhand -3.3032 11.1534
lfingers 7.12502
lthumb 22.423 39.8718
rfemur -28.6301 6.16863 21.734
rtibia 70.6022
rfoot -31.1462 -7.1104
rtoes 9.29199
lfemur -18.6322 -25.5405 3.87863
ltibia 20.2774
lfoot -6.15364 15.8148
ltoes -54.947
3206
root -1.19754 14.2087 2.79146 -370.417 -23.6974 367.572
lowerback 19.7948 0.317076 -6.17099
upperback -0.296368 -1.13219 -0.825328
thorax -11.3944 -0.208448 2.93475
lowerneck -14.237 -6.1495 -4.03062
upperneck 20.2905 -8.58432 4.02414
head 9.06545 -3.93846 0.985432
rclavicle -3.52222e-014 -2.54444e-014
rhumerus 65.3806 11.0294 -25.0954
rradius 50.4115
rwrist 13.0123
rhand 0.183734 22.6802
rfingers 7.12502
rthumb 25.7663 -5.59512
lclavicle -3.52222e-014 -2.54444e-014
lhumerus 31.4331 10.4274 52.8024
lradius 51.7326
lwrist -12.8644
lhand -3.07779 11.2728
lfingers 7.12502
lthumb 22.6393 39.9651
rfemur -28.8372 6.55782 21.3475
rtibia 70.7238
rfoot -30.9517 -6.67883
rtoes 10.2686
lfemur -18.332 -26.0009 3.48062
ltibia 20.434
lfoot -7.13496 15.4519
ltoes -54.6998
3207
root -1.18165 14.2009 2.78411 -370.595 -24.7606 367.542
lowerback 19.9341 0.361016 -6.05718
upperback -0.363006 -1.05643 -0.782548
thorax -11.5574 -0.171479 2.89803
lowerneck -14.4383 -6.25287 -4.05047
upperneck 20.4758 -8.69909 3.88978
head 9.16585 -4.00249 0.920005
rclavicle 1.13059e-014 -7.95139e-015
rhumerus 65.1464 10.5702 -25.0633
rradius 50.4314
rwrist 12.795
rhand 0.71426 22.8257
rfingers 7.12502
rthumb 26.2743 -5.37497
lclavicle 1.13059e-014 -7.95139e-015
lhumerus 31.5411 10.504 52.4726
lradius 51.2488
lwrist -12.6226
lhand -3.64154 10.8881
lfingers 7.12502
lthumb 22.0981 39.6453
rfemur -28.9225 7.37161 21.5965
rtibia 70.7874
rfoot -30.7602 -6.47399
rtoes 9.56739
lfemur -17.9631 -25.6407 3.50038
ltibia 20.9176
lfoot -8.77144 14.8738
ltoes -54.432
3208
root -1.16784 14.1933 2.77372 -370.713 -25.5645 367.662
lowerback 19.8524 0.248576 -6.17785
upperback -0.380727 -1.22514 -0.754298
thorax -11.5125 -0.243468 3.04604
lowerneck -14.6512 -6.10828 -3.89275
upperneck 20.6988 -8.47234 3.59078
head 9.25055 -3.91096 0.814042
rclavicle 1.02747e-014 -9.14409e-015
rhumerus 65.1715 10.26 -24.6348
rradius 50.456
rwrist 12.8476
rhand 0.214587 22.4204
rfingers 7.12502
rthumb 25.7959 -5.85066
lclavicle 1.02747e-014 -9.14409e-015
lhumerus 31.4694 10.7161 51.7219
lradius 50.6596
lwrist -12.53
lhand -3.98224 10.7182
lfingers 7.12502
lthumb 21.771 39.5138
rfemur -29.1214 7.93786 21.6342
rtibia 70.9254
rfoot -30.6423 -6.32877
rtoes 10.3964
lfemur -17.719 -25.6645 3.47438
ltibia 21.0389
lfoot -10.3091 13.8577
ltoes -54.0377
3209
root -1.14893 14.1866 2.77771 -371.022 -26.6424 368.023
lowerback 19.8034 0.402256 -6.16561
upperback -0.337902 -1.05189 -1.06404
thorax -11.4598 -0.178152 2.64338
lowerneck -15.6258 -6.14626 -3.1857
upperneck 21.5339 -8.65266 3.29008
head 9.68218 -3.94407 0.533318
rclavicle 1.42286e-014 -5.56597e-015
rhumerus 64.6348 9.46473 -24.9437
rradius 50.2766
rwrist 12.8585
rhand 0.374283 22.5909
rfingers 7.12502
rthumb 25.9488 -5.65783
lclavicle 1.42286e-014 -5.56597e-015
lhumerus 32.0968 10.6343 51.3978
lradius 49.9697
lwrist -12.7898
lhand -4.23701 10.618
lfingers 7.12502
lthumb 21.5263 39.4417
rfemur -29.2727 8.63216 21.4059
rtibia 71.1052
rfoot -30.4217 -5.90334
rtoes 10.344
lfemur -17.0862 -25.5331 3.03139
ltibia 21.2233
lfoot -10.3757 14.1784
ltoes -53.9992
3210
root -1.13653 14.193 2.77638 -371.162 -27.6094 368.288
lowerback 19.4696 0.480642 -6.12553
upperback -0.215899 -0.938209 -1.31803
thorax -11.1473 -0.149471 2.3026
lowerneck -15.9186 -6.18694 -2.60101
upperneck 21.4406 -8.81368 3.1462
head 9.67368 -3.98423 0.360571
rclavicle -3.70858e-014 1.23246e-014
rhumerus 64.1084 8.51445 -25.1423
rradius 50.2034
rwrist 12.7586
rhand 0.42305 22.6608
rfingers 7.12502
rthumb 25.9955 -5.58114
lclavicle -3.70858e-014 1.23246e-014
lhumerus 33.0502 10.7753 51.1785
lradius 49.0329
lwrist -12.6365
lhand -4.56143 10.3155
lfingers 7.12502
lthumb 21.2147 39.1746
rfemur -29.5187 9.11122 21.2674
rtibia 71.1645
rfoot -30.0629 -5.82291
rtoes 9.75949
lfemur -16.75 -25.648 2.77854
ltibia 21.5528
lfoot -11.4816 13.8039
ltoes -53.7667
